<?xml version="1.0" encoding="UTF-8"?>
<svg xmlns="http://www.w3.org/2000/svg" xmlns:xlink="http://www.w3.org/1999/xlink" viewBox="0 0 384 384" width="384px" height="384px">
<g id="surface85473889">
<path style="fill-rule:nonzero;fill:rgb(0%,0%,0%);fill-opacity:1;stroke-width:1;stroke-linecap:butt;stroke-linejoin:round;stroke:rgb(80.000001%,80.000001%,80.000001%);stroke-opacity:1;stroke-miterlimit:10;" d="M 157.666241 35.833276 L 157.666241 50.166877 L 14.333756 50.166877 L 14.333756 35.833276 Z M 157.666241 78.834078 L 157.666241 93.165919 L 14.333756 93.165919 L 14.333756 78.834078 Z M 157.666241 121.83312 L 157.666241 136.166721 L 14.333756 136.166721 L 14.333756 121.83312 Z M 157.666241 121.83312 " transform="matrix(2.219163,0,0,2.219163,1.152,1.152)"/>
<path style=" stroke:none;fill-rule:nonzero;fill:rgb(0%,0%,0%);fill-opacity:1;" d="M 32.960938 80.671875 L 32.960938 112.480469 L 351.039062 112.480469 L 351.039062 80.671875 Z M 32.960938 176.097656 L 32.960938 207.902344 L 351.039062 207.902344 L 351.039062 176.097656 Z M 32.960938 271.519531 L 32.960938 303.328125 L 351.039062 303.328125 L 351.039062 271.519531 Z M 32.960938 271.519531 "/>
</g>
</svg>
