<svg xmlns="http://www.w3.org/2000/svg" xmlns:svgjs="http://svgjs.com/svgjs" xmlns:xlink="http://www.w3.org/1999/xlink" width="2048" height="1080" preserveAspectRatio="none" version="1.1" viewBox="0 0 2048 1080"><g fill="none" mask="url(&quot;#SvgjsMask8065&quot;)"><rect width="2048" height="1080" x="0" y="0" fill="url(#SvgjsLinearGradient8066)"/><path fill="rgba(28, 83, 142, 0.4)" d="M193.6045549626308 207.55348632815173L421.17128147522646 48.53254171402915 203.04676065625725-57.85389545469468z" class="triangle-float1"/><path fill="rgba(28, 83, 142, 0.4)" d="M1464.864129738794 226.94067494449578L1636.7429748048046 15.10109270069134 1401.8981239584023-26.308390783984578z" class="triangle-float3"/><path fill="rgba(28, 83, 142, 0.4)" d="M621.0268115732531 441.49849463815735L853.1199011580456 535.270189665522 714.7985066006178 209.40540505336477z" class="triangle-float2"/><path fill="rgba(28, 83, 142, 0.4)" d="M1283.8504197857983 659.1714830583253L1125.8763600342413 729.5060659943631 1196.2109429702791 887.4801257459201 1354.185002721836 817.1455428098822z" class="triangle-float2"/><path fill="rgba(28, 83, 142, 0.4)" d="M2074.378,1386.328C2158.743,1385.148,2247.399,1368.555,2293.305,1297.764C2342.887,1221.305,2339.203,1123.59,2297.198,1042.721C2251.397,954.544,2173.666,880.146,2074.378,876.281C1969.141,872.185,1869.184,931.345,1819.343,1024.122C1771.824,1112.577,1786.772,1221.939,1844.58,1304.04C1894.785,1375.342,1987.183,1387.548,2074.378,1386.328" class="triangle-float2"/><path fill="rgba(28, 83, 142, 0.4)" d="M304.348,1231.129C365.267,1233.646,431.496,1213.655,459.167,1159.325C485.304,1108.007,451.454,1051.452,420.638,1002.799C392.77,958.8,356.422,915.83,304.348,914.889C250.992,913.925,207.214,952.238,180.545,998.462C153.892,1044.658,145.157,1100.301,170.21,1147.384C196.749,1197.259,247.9,1228.796,304.348,1231.129" class="triangle-float2"/><path fill="rgba(28, 83, 142, 0.4)" d="M694.8777582671444 750.9091010970221L865.1148615090456 675.114659429897 789.3204198419204 504.87755618799576 619.0833166000192 580.6719978551209z" class="triangle-float1"/><path fill="rgba(28, 83, 142, 0.4)" d="M1357.7255994466354-58.95165250485824L1330.7019647273016 246.57601227939188 1575.64351576404 137.52100753387109z" class="triangle-float2"/><path fill="rgba(28, 83, 142, 0.4)" d="M1729.24,595.701C1783.046,598.257,1836.736,575.816,1864.898,529.897C1894.285,481.981,1897.888,418.916,1866.086,372.567C1837.246,330.536,1780.214,332.223,1729.24,332.189C1678.176,332.155,1618.958,328.967,1592.078,372.384C1564.381,417.12,1586.674,473.153,1614.212,517.987C1640.169,560.248,1679.7,593.347,1729.24,595.701" class="triangle-float3"/><path fill="rgba(28, 83, 142, 0.4)" d="M303.7031814865885 545.7498088017526L134.1708306832432 500.3237523130464 88.744774194537 669.8561031163918 258.2771249978823 715.2821596050978z" class="triangle-float1"/><path fill="rgba(28, 83, 142, 0.4)" d="M89.019,486.207C155.052,481.956,197.975,422.531,227.656,363.391C253.757,311.385,256.831,253.382,232.365,200.588C202.646,136.458,159.666,66.452,89.019,64.231C16.153,61.94,-36.037,126.995,-70.838,191.055C-103.737,251.614,-117.236,322.881,-84.414,383.481C-50.117,446.805,17.153,490.833,89.019,486.207" class="triangle-float3"/></g><defs><mask id="SvgjsMask8065"><rect width="2048" height="1080" fill="#fff"/></mask><linearGradient id="SvgjsLinearGradient8066" x1="50%" x2="50%" y1="100%" y2="0%" gradientUnits="userSpaceOnUse"><stop offset="0" stop-color="rgba(93, 0, 255, 1)"/><stop offset="1" stop-color="rgba(173, 147, 218, 1)"/></linearGradient><style>@keyframes float1{0%{transform:translate(0,0)}50%{transform:translate(-10px,0)}}@keyframes float2{0%{transform:translate(0,0)}50%{transform:translate(-5px,-5px)}}@keyframes float3{0%{transform:translate(0,0)}50%{transform:translate(0,-10px)}}.triangle-float1{animation:float1 5s infinite}.triangle-float2{animation:float2 4s infinite}.triangle-float3{animation:float3 6s infinite}</style></defs></svg>